<svg xmlns="http://www.w3.org/2000/svg" viewBox="0 11.5 340.1499938964844 36.400001525878906" data-asc="0.95"><defs /><g ><g transform="translate(0, 0)"><path d="M19.70 18.95L17.95 18.95L7.95 47.50L0 47.50L12.65 12.50L25.15 12.50L37.75 47.50L29.80 47.50L19.70 18.95M8.45 33.50L28.85 33.50L28.85 39.95L8.45 39.95L8.45 33.50ZM40.85 11.50L48.15 11.50L48.15 47.50L40.85 47.50L40.85 11.50ZM65.30 47.85Q61.45 47.85 58.60 46.23Q55.75 44.60 54.18 41.65Q52.60 38.70 52.60 34.75Q52.60 31.10 54.15 28.25Q55.70 25.40 58.50 23.77Q61.30 22.15 64.85 22.15Q68.60 22.15 71.35 23.67Q74.10 25.20 75.65 28Q77.20 30.80 77.20 34.50Q77.20 35.10 77.15 35.75Q77.10 36.40 77 37.20L60.40 37.20Q60.65 38.55 61.35 39.52Q62.05 40.50 63.13 41.02Q64.20 41.55 65.60 41.55Q67.15 41.55 68.40 40.90Q69.65 40.25 70.25 39.05L76.80 40.85Q75.30 44.20 72.30 46.02Q69.30 47.85 65.30 47.85M69.25 32.45Q69.20 31.20 68.60 30.25Q68 29.30 67.05 28.75Q66.10 28.20 64.95 28.25Q63.80 28.30 62.88 28.82Q61.95 29.35 61.30 30.27Q60.65 31.20 60.50 32.45L69.25 32.45ZM79.95 22.50L88.55 22.50L93.25 29.75L97.90 22.50L106.45 22.50L97.65 34.95L106.45 47.50L97.90 47.50L93.25 40.25L88.55 47.50L79.95 47.50L88.80 34.95L79.95 22.50ZM110.10 22.75Q110.25 19.25 111.83 16.90Q113.40 14.55 116.10 13.35Q118.80 12.15 122.40 12.15Q126.20 12.15 128.80 13.48Q131.40 14.80 132.75 17.02Q134.10 19.25 134.10 22Q134.10 24.15 133.25 25.67Q132.40 27.20 131.13 28.13Q129.85 29.05 128.60 29.45L128.60 29.65Q130.40 30.25 131.80 31.27Q133.20 32.30 133.98 33.88Q134.75 35.45 134.75 37.75Q134.75 40.75 133.35 43.02Q131.95 45.30 129.28 46.58Q126.60 47.85 122.80 47.85Q119.00 47.85 116.08 46.75Q113.15 45.65 111.48 43.15Q109.80 40.65 109.65 36.55L117.20 36.55Q117.30 39 118.58 40.13Q119.85 41.25 122.55 41.25Q124.10 41.25 125.10 40.75Q126.10 40.25 126.60 39.33Q127.10 38.40 127.10 37.10Q127.10 34.60 125.43 33.73Q123.75 32.85 120.15 32.85L118.65 32.85L118.65 26.90L120.15 26.90Q121.90 26.90 123.30 26.57Q124.70 26.25 125.55 25.42Q126.40 24.60 126.40 23.05Q126.40 21.05 125.33 19.90Q124.25 18.75 122.20 18.75Q120.65 18.75 119.70 19.30Q118.75 19.85 118.28 20.77Q117.80 21.70 117.70 22.75L110.10 22.75ZM139.35 41.85L148.80 32.95Q151.40 30.50 152.90 28.88Q154.40 27.25 155.05 25.88Q155.70 24.50 155.70 23Q155.70 21.05 154.65 19.90Q153.60 18.75 151.35 18.75Q149.95 18.75 148.95 19.42Q147.95 20.10 147.38 21.38Q146.80 22.65 146.75 24.55L139.30 24.55Q139.40 20.25 141.08 17.52Q142.75 14.80 145.55 13.48Q148.35 12.15 151.65 12.15Q155.70 12.15 158.35 13.55Q161.00 14.95 162.28 17.35Q163.55 19.75 163.55 22.70Q163.55 24.95 162.83 26.90Q162.10 28.85 160.35 31Q158.60 33.15 155.45 36.05L150.00 41.05L164.25 41.05L164.25 47.50L139.35 47.50L139.35 41.85ZM169.10 22.75Q169.25 19.25 170.83 16.90Q172.40 14.55 175.10 13.35Q177.80 12.15 181.40 12.15Q185.20 12.15 187.80 13.48Q190.40 14.80 191.75 17.02Q193.10 19.25 193.10 22Q193.10 24.15 192.25 25.67Q191.40 27.20 190.13 28.13Q188.85 29.05 187.60 29.45L187.60 29.65Q189.40 30.25 190.80 31.27Q192.20 32.30 192.98 33.88Q193.75 35.45 193.75 37.75Q193.75 40.75 192.35 43.02Q190.95 45.30 188.28 46.58Q185.60 47.85 181.80 47.85Q178.00 47.85 175.08 46.75Q172.15 45.65 170.48 43.15Q168.80 40.65 168.65 36.55L176.20 36.55Q176.30 39 177.58 40.13Q178.85 41.25 181.55 41.25Q183.10 41.25 184.10 40.75Q185.10 40.25 185.60 39.33Q186.10 38.40 186.10 37.10Q186.10 34.60 184.43 33.73Q182.75 32.85 179.15 32.85L177.65 32.85L177.65 26.90L179.15 26.90Q180.90 26.90 182.30 26.57Q183.70 26.25 184.55 25.42Q185.40 24.60 185.40 23.05Q185.40 21.05 184.33 19.90Q183.25 18.75 181.20 18.75Q179.65 18.75 178.70 19.30Q177.75 19.85 177.28 20.77Q176.80 21.70 176.70 22.75L169.10 22.75ZM211.65 47.85Q207.80 47.85 204.78 46.25Q201.75 44.65 200.03 41.83Q198.30 39 198.30 35.40Q198.30 32.70 199.40 29.85Q200.50 27 202.80 23.95L211.50 12.50L220.00 12.50L209.70 25.80L203.00 33.35Q203.80 29 206.60 26.57Q209.40 24.15 213.35 24.15Q216.55 24.15 219.15 25.50Q221.75 26.85 223.33 29.43Q224.90 32 224.90 35.55Q224.90 39.25 223.10 42.02Q221.30 44.80 218.28 46.33Q215.25 47.85 211.65 47.85M206.10 35.60Q206.10 37.30 206.75 38.60Q207.40 39.90 208.65 40.60Q209.90 41.30 211.65 41.30Q213.35 41.30 214.58 40.60Q215.80 39.90 216.43 38.60Q217.05 37.30 217.05 35.60Q217.05 33.85 216.43 32.60Q215.80 31.35 214.58 30.68Q213.35 30 211.65 30Q209.90 30 208.65 30.68Q207.40 31.35 206.75 32.60Q206.10 33.85 206.10 35.60ZM233.75 47.90Q231.65 47.90 230.35 46.63Q229.05 45.35 229.05 43.55Q229.05 41.70 230.35 40.42Q231.65 39.15 233.75 39.15Q235.80 39.15 237.10 40.42Q238.40 41.70 238.40 43.55Q238.40 45.35 237.10 46.63Q235.80 47.90 233.75 47.90ZM243.55 22.50L250.15 22.50L250.65 25.05Q251.85 23.75 253.50 22.95Q255.15 22.15 257.10 22.15Q259.40 22.15 261.38 23.15Q263.35 24.15 264.55 26.05Q265.95 24.30 268.03 23.22Q270.10 22.15 272.60 22.15Q275.55 22.15 277.73 23.40Q279.90 24.65 281.10 27.05Q282.30 29.45 282.30 32.90L282.30 47.50L275 47.50L275 33.80Q275 31.40 273.90 30.13Q272.80 28.85 270.80 28.85Q268.70 28.85 267.55 30.15Q266.40 31.45 266.40 33.95L266.40 47.50L259.10 47.50L259.10 33.80Q259.10 31.40 258.10 30.13Q257.10 28.85 255.05 28.85Q252.95 28.85 251.90 30.15Q250.85 31.45 250.85 33.85L250.85 47.50L243.55 47.50L243.55 22.50ZM299.20 47.85Q295.55 47.85 292.65 46.30Q289.75 44.75 288.13 41.85Q286.50 38.95 286.50 35Q286.50 31.05 288.18 28.17Q289.85 25.30 292.78 23.72Q295.70 22.15 299.30 22.15Q303 22.15 305.93 23.72Q308.85 25.30 310.55 28.17Q312.25 31.05 312.25 34.95Q312.25 38.95 310.53 41.85Q308.80 44.75 305.82 46.30Q302.85 47.85 299.20 47.85M299.20 41.25Q300.50 41.25 301.70 40.55Q302.90 39.85 303.65 38.48Q304.40 37.10 304.40 35Q304.40 32.90 303.65 31.52Q302.90 30.15 301.75 29.45Q300.60 28.75 299.30 28.75Q297.90 28.75 296.80 29.45Q295.70 30.15 295.03 31.52Q294.35 32.90 294.35 35Q294.35 37.10 295 38.48Q295.65 39.85 296.75 40.55Q297.85 41.25 299.20 41.25ZM328.25 47.85Q324.40 47.85 321.55 46.23Q318.70 44.60 317.13 41.65Q315.55 38.70 315.55 34.75Q315.55 31.10 317.10 28.25Q318.65 25.40 321.45 23.77Q324.25 22.15 327.80 22.15Q331.55 22.15 334.30 23.67Q337.05 25.20 338.60 28Q340.15 30.80 340.15 34.50Q340.15 35.10 340.10 35.75Q340.05 36.40 339.95 37.20L323.35 37.20Q323.60 38.55 324.30 39.52Q325 40.50 326.08 41.02Q327.15 41.55 328.55 41.55Q330.10 41.55 331.35 40.90Q332.60 40.25 333.20 39.05L339.75 40.85Q338.25 44.20 335.25 46.02Q332.25 47.85 328.25 47.85M332.20 32.45Q332.15 31.20 331.55 30.25Q330.95 29.30 330 28.75Q329.05 28.20 327.90 28.25Q326.75 28.30 325.83 28.82Q324.90 29.35 324.25 30.27Q323.60 31.20 323.45 32.45L332.20 32.45Z" /></g></g></svg>